# xmcd
#
# Track frame offsets: 
#        150
#        18442
#        33709
#        55944
#        74510
#        92159
#        111150
#        131059
#        143228
#        171013
#
# Disc length: 2603 seconds
#
# Revision: 0
# Processed by: cddbd v1.5.2PL0 Copyright (c) Steve Scherf et al.
# Submitted via: ExactAudioCopyFreeDBPlugin 1.0
#
DISCID=910a290a
DTITLE=Matthew Robinson and The Jelly Kings - Work That Jelly!
DYEAR=2014
DGENRE=Blues
TTITLE0=Strut
TTITLE1=Rack 'Em Up
TTITLE2=Going To New York
TTITLE3=It Takes A Long Time, Baby
TTITLE4=I Didn't Know
TTITLE5=That's What Love Will Make You Do
TTITLE6=I'm Going To Stop You From Giving Me The Blues
TTITLE7=Your Today, My Tomorrow
TTITLE8=Whiskey Drinkin' Woman
TTITLE9=I Asked For Water
EXTD=
EXTT0=
EXTT1=
EXTT2=
EXTT3=
EXTT4=
EXTT5=
EXTT6=
EXTT7=
EXTT8=
EXTT9=
PLAYORDER=
